<svg xmlns="http://www.w3.org/2000/svg" width="60" height="28" viewBox="0 0 60 28" fill="none">
  <path d="M3.88894 5.19289C4.28895 2.49656 6.60356 0.5 9.3294 0.5H50.6706C53.3964 0.5 55.7111 2.49656 56.1111 5.1929L58.4847 21.1929C58.9776 24.5155 56.4032 27.5 53.0442 27.5H6.95578C3.59683 27.5 1.02241 24.5155 1.51532 21.1929L3.88894 5.19289Z" stroke="#595C61"/>
  <circle cx="44" cy="12" r="7.5" stroke="#595C61"/>
  <circle cx="15" cy="12" r="7.5" stroke="#595C61"/>
  <circle cx="8" cy="22" r="2.5" stroke="#595C61"/>
  <circle cx="52" cy="22" r="2.5" stroke="#595C61"/>
  <path d="M44 12L48 9" stroke="#595C61" stroke-linecap="round"/>
  <path d="M15 12L11 9" stroke="#595C61" stroke-linecap="round"/>
  <path d="M25 21H34" stroke="#595C61" stroke-linecap="round"/>
  <path d="M25 6H34" stroke="#595C61" stroke-linecap="round"/>
  <path d="M17 24H42" stroke="#595C61" stroke-linecap="round"/>
</svg>