<svg xmlns="http://www.w3.org/2000/svg" width="37" height="43" viewBox="0 0 37 43" fill="none">
  <path d="M1.82156 42L5.02156 38H31.5409L34.7409 42H1.82156Z" fill="#595C61" stroke="#595C61"/>
  <path d="M6.78125 36L9.03125 33H27.5312L29.7812 36H6.78125Z" fill="#595C61" stroke="#595C61"/>
  <path d="M10.7155 31L12.0488 29H24.5137L25.847 31H10.7155Z" fill="#595C61" stroke="#595C61"/>
  <path fill-rule="evenodd" clip-rule="evenodd" d="M8.87434 0C8.32542 0 7.82035 0.299831 7.5575 0.781722L5.12602 5.23943C5.0384 5.40006 4.87004 5.5 4.68707 5.5H1.60051C0.885488 5.5 0.269866 6.00469 0.129639 6.70583L0.0296386 7.20583C-0.155999 8.13401 0.55394 9 1.50051 9H2.58119C2.96243 9 3.20342 9.40956 3.01827 9.74282L1.46947 12.5307C1.34567 12.7535 1.28071 13.0042 1.28071 13.2591V24C1.28071 24.8284 1.95228 25.5 2.78071 25.5H5.78071C6.60913 25.5 7.28071 24.8284 7.28071 24V23C7.28071 22.7239 7.50456 22.5 7.78071 22.5H17.7807H18.2807H28.2807C28.5568 22.5 28.7807 22.7239 28.7807 23V24C28.7807 24.8284 29.4523 25.5 30.2807 25.5H33.2807C34.1091 25.5 34.7807 24.8284 34.7807 24V13.2591C34.7807 13.0042 34.7157 12.7535 34.5919 12.5307L33.0431 9.74282C32.858 9.40956 33.099 9 33.4802 9H34.5609C35.5075 9 36.2174 8.13401 36.0318 7.20583L35.9318 6.70583C35.7915 6.00469 35.1759 5.5 34.4609 5.5H31.3743C31.1914 5.5 31.023 5.40006 30.9354 5.23943L28.5039 0.781722C28.2411 0.299831 27.736 0 27.1871 0H18.2807H17.7807H8.87434ZM17.7807 1H8.87434C8.69137 1 8.52301 1.09994 8.43539 1.26057L6.00392 5.71828C5.74107 6.20017 5.23599 6.5 4.68707 6.5H1.60051C1.36217 6.5 1.15696 6.66823 1.11022 6.90194L1.01022 7.40194C0.94834 7.71134 1.18499 8 1.50051 8H2.58119C3.72492 8 4.44787 9.22867 3.89243 10.2285L2.34363 13.0163C2.30236 13.0906 2.28071 13.1742 2.28071 13.2591V24C2.28071 24.2761 2.50456 24.5 2.78071 24.5H5.78071C6.05685 24.5 6.28071 24.2761 6.28071 24V23C6.28071 22.1716 6.95228 21.5 7.78071 21.5H17.7807H18.2807H28.2807C29.1091 21.5 29.7807 22.1716 29.7807 23V24C29.7807 24.2761 30.0046 24.5 30.2807 24.5H33.2807C33.5568 24.5 33.7807 24.2761 33.7807 24V13.2591C33.7807 13.1742 33.759 13.0906 33.7178 13.0163L32.169 10.2285C31.6135 9.22867 32.3365 8 33.4802 8H34.5609C34.8764 8 35.1131 7.71134 35.0512 7.40194L34.9512 6.90194C34.9044 6.66823 34.6992 6.5 34.4609 6.5H31.3743C30.8254 6.5 30.3203 6.20017 30.0575 5.71828L27.626 1.26057C27.5384 1.09994 27.37 1 27.1871 1H18.2807H17.7807Z" fill="#595C61"/>
  <path fill-rule="evenodd" clip-rule="evenodd" d="M10.4495 3C9.84392 3 9.29776 3.36411 9.06486 3.92308L7.39819 7.92308C6.98651 8.91111 7.71244 10 8.78281 10H17.7828H18.2828H27.2828C28.3532 10 29.0791 8.91111 28.6674 7.92308L27.0008 3.92308C26.7679 3.36411 26.2217 3 25.6161 3H18.2828H17.7828H10.4495ZM17.7828 4H10.4495C10.2476 4 10.0656 4.12137 9.98794 4.30769L8.32127 8.30769C8.18404 8.63704 8.42602 9 8.78281 9H17.7828H18.2828H27.2828C27.6396 9 27.8816 8.63704 27.7443 8.30769L26.0777 4.30769C26 4.12137 25.818 4 25.6161 4H18.2828H17.7828Z" fill="#595C61"/>
</svg>