<svg xmlns="http://www.w3.org/2000/svg" width="87" height="47" viewBox="0 0 87 47" fill="none">
  <path d="M13 2.5H71.5" stroke="#595C61"/>
  <rect x="62.5" y="33.5" width="7" height="2" rx="1" stroke="#595C61"/>
  <path d="M29.187 9.39554C28.5976 9.39621 28.0125 9.39749 27.4324 9.39933L23.7304 12.0469L23.5016 13.4617L29.187 9.39554Z" fill="#595C61"/>
  <path d="M22.8783 17.3156L33.9412 9.40351C34.518 9.40615 35.0967 9.40943 35.6767 9.41338L22.6495 18.7303L22.8783 17.3156Z" fill="#595C61"/>
  <path d="M20.9452 29.2677L21.174 27.853L46.7251 9.57903C47.2908 9.59281 47.8536 9.60748 48.4129 9.62305L20.9452 29.2677Z" fill="#595C61"/>
  <path d="M24.4528 31.4183C23.8535 31.4256 23.2614 31.4318 22.6772 31.4371L52.9669 9.77423C53.5241 9.79599 54.0754 9.81885 54.6202 9.84283L24.4528 31.4183Z" fill="#595C61"/>
  <path d="M31.136 31.2978C30.5304 31.3123 29.9282 31.3258 29.3302 31.3382L59.0625 10.0739C59.6075 10.1073 60.1423 10.142 60.6658 10.1783L31.136 31.2978Z" fill="#595C61"/>
  <path d="M37.9421 31.0894C37.3278 31.1125 36.7139 31.1343 36.1011 31.155L63.9195 11.2595L63.8869 12.5338L37.9421 31.0894Z" fill="#595C61"/>
  <path d="M44.9025 30.7706C44.276 30.8049 43.6468 30.8377 43.0156 30.869L63.7982 16.0054L63.7657 17.2798L44.9025 30.7706Z" fill="#595C61"/>
  <path d="M52.0825 30.2947C51.4378 30.3459 50.7855 30.3951 50.1269 30.4423L63.677 20.7514L63.6444 22.0258L52.0825 30.2947Z" fill="#595C61"/>
  <path d="M59.641 29.5482C58.9633 29.6314 58.2678 29.7112 57.5565 29.7879L63.5557 25.4974L63.5232 26.7717L59.641 29.5482Z" fill="#595C61"/>
  <path d="M40.3761 9.46058L22.0261 22.5843L21.7973 23.999L42.09 9.48587C41.5196 9.47668 40.9481 9.46826 40.3761 9.46058Z" fill="#595C61"/>
  <path d="M13.5 9.1691C16.4615 9.10609 20.0579 9.05261 24 9.02351M24 9.02351L18 46.1699M24 9.02351C37.0375 8.9273 53.8568 9.09784 64 10.0727M64 10.0727C67.0145 10.3624 69.4393 10.7232 71 11.1691M64 10.0727L63.5 29.6699M64 10.0727C66 11.9384 70.4 16.5699 72 20.1699M13.5 31.6699C29.5 31.8366 63.4 31.1699 71 27.1699" stroke="#595C61"/>
</svg>