<svg xmlns="http://www.w3.org/2000/svg" width="62" height="39" viewBox="0 0 62 39" fill="none">
  <path d="M14 24V19C14 18.4477 14.4468 18 14.9991 18H23C24.2 18 24.5 18.6667 24.5 19V26.5C24.5 28.681 23.6741 29.6508 23.1482 29.9347C23.0536 29.9858 22.9452 30 22.8377 30H14C13.4477 30 13 29.5523 13 29V28.7808C13 28.3219 13.3123 27.9219 13.7575 27.8106L14.2425 27.6894C14.6877 27.5781 15 27.1781 15 26.7192V25C15 24.7239 14.7761 24.5 14.5 24.5C14.2239 24.5 14 24.2761 14 24Z" stroke="#595C61" stroke-linejoin="round"/>
  <path d="M17.5 18V19.25C17.5 19.6642 17.8358 20 18.25 20V20C18.6642 20 19 20.3358 19 20.75V30" stroke="#595C61" stroke-linejoin="round"/>
  <path d="M33.5 15.5L59 10" stroke="#595C61" stroke-linejoin="round"/>
  <path d="M33.5 17.5L59 12" stroke="#595C61" stroke-linejoin="round"/>
  <path d="M33.5 20L59 14.5" stroke="#595C61" stroke-linejoin="round"/>
  <path d="M33.5 22.5L59 16.5" stroke="#595C61" stroke-linejoin="round"/>
  <path d="M33.5 25L59 19" stroke="#595C61" stroke-linejoin="round"/>
  <path d="M50.5 1C52.3333 1.66667 55.8 3.6 55 6" stroke="#595C61" stroke-linejoin="round"/>
  <path d="M51 29L61 26" stroke="#595C61" stroke-linejoin="round"/>
  <path d="M31.5 35L46 30.5" stroke="#595C61" stroke-linejoin="round"/>
  <path d="M46 29V33.5" stroke="#595C61" stroke-linejoin="round"/>
  <path d="M51 27.5V32" stroke="#595C61" stroke-linejoin="round"/>
  <path d="M55 24.5L61.5 22.5" stroke="#595C61" stroke-linejoin="round"/>
  <path d="M30.5 31L42 28" stroke="#595C61" stroke-linejoin="round"/>
  <path d="M42 25.5V28.646C42 29.3188 42.651 29.7997 43.2941 29.6018L54.2941 26.2172C54.7137 26.0881 55 25.7004 55 25.2614V22" stroke="#595C61" stroke-linejoin="round"/>
  <path d="M1 17.382V2C1 1.44772 1.44138 1 1.99366 1H50C58.8 1 61.3333 6 61.5 8.5V23.5C61.5 26.9579 59.9623 28.8473 59.1024 29.4342C59.0352 29.4801 58.9637 29.5111 58.8859 29.5349C52.8405 31.3832 40.2824 35.3076 37.5 36.5C34.7 37.7 31.3333 38 30 38H15.5C9.9 38 8.5 35 8.5 33.5C8.12857 24.5857 3.99201 19.8677 1.53477 18.3051C1.21515 18.1018 1 17.7607 1 17.382Z" stroke="#595C61" stroke-linejoin="round"/>
  <path d="M1 5C7.83333 7.33333 23.5 11.9 31.5 11.5C41.5 11 60 8.5 60.5 6" stroke="#595C61" stroke-linejoin="round"/>
  <path d="M15.9997 9.5C15.3331 10.6667 17.2997 13.2 30.4997 14C31.4998 14 33.5 14.5 33.5 16.5C33.5 18.2348 33.5 23.1043 33.5 26.2144C33.5 26.8668 34.1147 27.3433 34.747 27.1821L58.247 21.1919C58.69 21.079 59 20.6801 59 20.2229V7" stroke="#595C61" stroke-linejoin="round"/>
  <path d="M31.5 11.5006C31.5 10.6672 32.5 8.90056 36.5 8.50056C40.5 8.10056 49.1667 6.66723 53 6.00056C55 5.8339 59 5.80056 59 7.00056" stroke="#595C61" stroke-linejoin="round"/>
  <path d="M13 1C18.8333 1.66667 31 4.2 33 9" stroke="#595C61" stroke-linejoin="round"/>
  <path d="M8 7.5C9 10.3333 13.8 15.9 25 15.5C26.8333 15.3333 30.5 16 30.5 20C30.5 24 30.5 30 30.5 32.5C30.3333 34 31.4 36.9 37 36.5" stroke="#595C61" stroke-linejoin="round"/>
  <ellipse cx="48.2876" cy="14.0634" rx="3.5" ry="2" transform="rotate(-9.72868 48.2876 14.0634)" fill="#BEC0C7" stroke="#595C61" stroke-linejoin="round"/>
  <path d="M22 25V26C22 26.5523 21.5523 27 21 27V27C20.4477 27 20 26.5523 20 26V26C20 25.4477 20.4477 25 21 25H22ZM22 25V24M22 22.25H20.875C20.3918 22.25 20 22.6418 20 23.125V23.125C20 23.6082 20.3918 24 20.875 24H22M22 22.25V24M22 22.25V20.875M22 20.875V20.5C22 19.9477 21.5523 19.5 21 19.5H20.7266C20.3253 19.5 20 19.8253 20 20.2266V20.2266C20 20.6457 20.3536 20.9779 20.7719 20.9518L22 20.875Z" stroke="#595C61" stroke-width="0.6" stroke-linejoin="round"/>
  <path d="M37 15V16.5" stroke="#595C61" stroke-width="0.6" stroke-linejoin="round"/>
  <path d="M41 14V16" stroke="#595C61" stroke-width="0.6" stroke-linejoin="round"/>
  <path d="M54.5 11V12.5" stroke="#595C61" stroke-width="0.6" stroke-linejoin="round"/>
  <path d="M38.5 16.5V19" stroke="#595C61" stroke-width="0.6" stroke-linejoin="round"/>
  <path d="M42.5 15.5V18" stroke="#595C61" stroke-width="0.6" stroke-linejoin="round"/>
  <path d="M37 19.5V21.5" stroke="#595C61" stroke-width="0.6" stroke-linejoin="round"/>
  <path d="M41 18.5V20.5" stroke="#595C61" stroke-width="0.6" stroke-linejoin="round"/>
  <path d="M46 17.5V19.5" stroke="#595C61" stroke-width="0.6" stroke-linejoin="round"/>
  <path d="M55 15V17.5" stroke="#595C61" stroke-width="0.6" stroke-linejoin="round"/>
  <path d="M39 21.5V23.5" stroke="#595C61" stroke-width="0.6" stroke-linejoin="round"/>
  <path d="M43.5 20V22.5" stroke="#595C61" stroke-width="0.6" stroke-linejoin="round"/>
  <path d="M47.5 19V21.5" stroke="#595C61" stroke-width="0.6" stroke-linejoin="round"/>
  <path d="M41.5 23V25.5" stroke="#595C61" stroke-width="0.6" stroke-linejoin="round"/>
  <path d="M51.5 21V23" stroke="#595C61" stroke-width="0.6" stroke-linejoin="round"/>
  <path d="M55.5 20V21.5" stroke="#595C61" stroke-width="0.6" stroke-linejoin="round"/>
  <path d="M52.5 18V21" stroke="#595C61" stroke-width="0.6" stroke-linejoin="round"/>
</svg>