<svg width="49" height="33" viewBox="0 0 49 33" fill="none" xmlns="http://www.w3.org/2000/svg">
<path d="M13.4934 19.91H11.8934V13.58H13.4934V16.23C13.5067 16.23 13.5167 16.23 13.5234 16.23C13.59 16.23 13.6667 16.1767 13.7534 16.07C13.8467 15.9633 13.93 15.8567 14.0034 15.75L15.3434 13.58H17.0834V13.61L15.9434 15.45C15.8434 15.6167 15.73 15.7967 15.6034 15.99C15.4767 16.1767 15.35 16.3433 15.2234 16.49C15.1034 16.63 14.9967 16.7167 14.9034 16.75V16.78C14.9967 16.82 15.1034 16.9067 15.2234 17.04C15.35 17.1667 15.4767 17.3167 15.6034 17.49C15.7367 17.6567 15.8634 17.8233 15.9834 17.99L17.3134 19.88V19.91H15.4734L14.2234 17.99V18C14.1834 17.9333 14.12 17.8467 14.0334 17.74C13.9534 17.6267 13.8667 17.5233 13.7734 17.43C13.6867 17.3367 13.61 17.29 13.5434 17.29C13.53 17.29 13.52 17.29 13.5134 17.29C13.5067 17.29 13.5 17.29 13.4934 17.29V19.91ZM19.2578 19.91H17.6578V13.58H20.6778C21.4711 13.58 22.0478 13.76 22.4078 14.12C22.7745 14.4733 22.9578 14.9967 22.9578 15.69C22.9578 16.21 22.8278 16.6567 22.5678 17.03C22.3078 17.3967 21.9645 17.6267 21.5378 17.72L21.5278 17.75C21.6945 17.8567 21.8778 18.0333 22.0778 18.28C22.2778 18.5267 22.4745 18.7967 22.6678 19.09C22.8678 19.3767 23.0445 19.6467 23.1978 19.9V19.91H21.3378L20.2578 18.31C20.1645 18.17 20.0878 18.07 20.0278 18.01C19.9745 17.95 19.9078 17.9133 19.8278 17.9C19.7545 17.8867 19.6345 17.88 19.4678 17.88H19.2578V19.91ZM20.4178 14.88H19.2578V16.58H20.4178C20.7511 16.58 20.9811 16.5133 21.1078 16.38C21.2411 16.2467 21.3078 16.03 21.3078 15.73C21.3078 15.43 21.2411 15.2133 21.1078 15.08C20.9811 14.9467 20.7511 14.88 20.4178 14.88ZM23.8031 19.91V13.58H28.5031V14.88H25.4031V16.08H28.0931V17.38H25.4031V18.61H28.5031V19.91H23.8031ZM33.6012 18.55V19.91H29.0012V13.58H30.6012V18.55H33.6012ZM38.6039 18.55V19.91H34.0039V13.58H35.6039V18.55H38.6039Z" fill="#595C61"/>
<rect x="1" y="1" width="47" height="31" rx="2" stroke="#595C61" stroke-linejoin="round"/>
</svg>
