<svg xmlns="http://www.w3.org/2000/svg" width="40" height="40" viewBox="0 0 40 40" fill="none">
  <rect x="0.5" y="0.5" width="39" height="39" rx="1.5" stroke="#595C61"/>
  <mask id="path-2-inside-1_154_9913" fill="white">
    <path fill-rule="evenodd" clip-rule="evenodd" d="M13 12C13 9.23858 15.2386 7 18 7H22C24.7614 7 27 9.23858 27 12C28.1046 12 29 12.8954 29 14C29 15.1046 28.1046 16 27 16V28C27 30.7614 24.7614 33 22 33H18C15.2386 33 13 30.7614 13 28L13 16C11.8954 16 11 15.1046 11 14C11 12.8954 11.8954 12 13 12Z"/>
  </mask>
  <path d="M13 12L13 13L14 13V12H13ZM27 12H26V13H27V12ZM27 16V15H26V16H27ZM13 28H14H13ZM13 16H14L14 15H13V16ZM18 6C14.6863 6 12 8.68629 12 12H14C14 9.79086 15.7909 8 18 8V6ZM22 6H18V8H22V6ZM28 12C28 8.68629 25.3137 6 22 6V8C24.2091 8 26 9.79086 26 12H28ZM27 13C27.5523 13 28 13.4477 28 14H30C30 12.3431 28.6569 11 27 11V13ZM28 14C28 14.5523 27.5523 15 27 15V17C28.6569 17 30 15.6569 30 14H28ZM28 28V16H26V28H28ZM22 34C25.3137 34 28 31.3137 28 28H26C26 30.2091 24.2091 32 22 32V34ZM18 34H22V32H18V34ZM12 28C12 31.3137 14.6863 34 18 34V32C15.7909 32 14 30.2091 14 28H12ZM12 16L12 28H14V16H12ZM10 14C10 15.6569 11.3431 17 13 17V15C12.4477 15 12 14.5523 12 14H10ZM13 11C11.3431 11 10 12.3431 10 14H12C12 13.4477 12.4477 13 13 13L13 11Z" fill="#595C61" mask="url(#path-2-inside-1_154_9913)"/>
  <rect x="16.4" y="16.4" width="7.2" height="13.2" rx="2.6" stroke="#595C61" stroke-width="0.8"/>
  <rect x="16.4" y="16.4" width="7.2" height="5.2" rx="2.6" stroke="#595C61" stroke-width="0.8"/>
  <rect x="16.4" y="25.4" width="7.2" height="4.2" rx="2.1" stroke="#595C61" stroke-width="0.8"/>
  <path d="M30 23C30.7956 23 31.5587 22.6839 32.1213 22.1213C32.6839 21.5587 33 20.7956 33 20C33 19.2044 32.6839 18.4413 32.1213 17.8787C31.5587 17.3161 30.7957 17 30 17" stroke="#595C61" stroke-width="0.8"/>
  <path d="M10 23C9.20435 23 8.44129 22.6839 7.87868 22.1213C7.31607 21.5587 7 20.7956 7 20C7 19.2044 7.31607 18.4413 7.87868 17.8787C8.44129 17.3161 9.20435 17 10 17" stroke="#595C61" stroke-width="0.8"/>
  <path d="M30 26C31.5913 26 33.1174 25.3679 34.2426 24.2426C35.3679 23.1174 36 21.5913 36 20C36 18.4087 35.3679 16.8826 34.2426 15.7574C33.1174 14.6321 31.5913 14 30 14" stroke="#595C61" stroke-width="0.8"/>
  <path d="M10 26C8.4087 26 6.88258 25.3679 5.75736 24.2426C4.63214 23.1174 4 21.5913 4 20C4 18.4087 4.63214 16.8826 5.75736 15.7574C6.88258 14.6321 8.4087 14 10 14" stroke="#595C61" stroke-width="0.8"/>
</svg>