<svg width="56" height="58" viewBox="0 0 56 58" fill="none" xmlns="http://www.w3.org/2000/svg">
<g id="Group 4487104">
<g id="Union">
<mask id="path-1-inside-1_611_16410" fill="white">
<path fill-rule="evenodd" clip-rule="evenodd" d="M21.5 40C21.5 42.7614 19.2614 45 16.5 45L12.5 45C9.73858 45 7.5 42.7614 7.5 40C6.39543 40 5.5 39.1046 5.5 38C5.5 36.8954 6.39543 36 7.5 36L7.5 24C7.5 21.2386 9.73858 19 12.5 19L16.5 19C19.2614 19 21.5 21.2386 21.5 24L21.5 36C22.6046 36 23.5 36.8954 23.5 38C23.5 39.1046 22.6046 40 21.5 40Z"/>
</mask>
<path d="M21.5 40L21.5 39L20.5 39L20.5 40L21.5 40ZM7.5 40L8.5 40L8.5 39L7.5 39L7.5 40ZM7.5 36L7.5 37L8.5 37L8.5 36L7.5 36ZM7.5 24L6.5 24L7.5 24ZM21.5 24L20.5 24L21.5 24ZM21.5 36L20.5 36L20.5 37L21.5 37L21.5 36ZM16.5 46C19.8137 46 22.5 43.3137 22.5 40L20.5 40C20.5 42.2091 18.7091 44 16.5 44L16.5 46ZM12.5 46L16.5 46L16.5 44L12.5 44L12.5 46ZM6.5 40C6.5 43.3137 9.18629 46 12.5 46L12.5 44C10.2909 44 8.5 42.2091 8.5 40L6.5 40ZM7.5 39C6.94771 39 6.5 38.5523 6.5 38L4.5 38C4.5 39.6569 5.84315 41 7.5 41L7.5 39ZM6.5 38C6.5 37.4477 6.94772 37 7.5 37L7.5 35C5.84315 35 4.5 36.3431 4.5 38L6.5 38ZM6.5 24L6.5 36L8.5 36L8.5 24L6.5 24ZM12.5 18C9.18629 18 6.5 20.6863 6.5 24L8.5 24C8.5 21.7909 10.2909 20 12.5 20L12.5 18ZM16.5 18L12.5 18L12.5 20L16.5 20L16.5 18ZM22.5 24C22.5 20.6863 19.8137 18 16.5 18L16.5 20C18.7091 20 20.5 21.7909 20.5 24L22.5 24ZM22.5 36L22.5 24L20.5 24L20.5 36L22.5 36ZM24.5 38C24.5 36.3431 23.1569 35 21.5 35L21.5 37C22.0523 37 22.5 37.4477 22.5 38L24.5 38ZM21.5 41C23.1569 41 24.5 39.6569 24.5 38L22.5 38C22.5 38.5523 22.0523 39 21.5 39L21.5 41Z" fill="#595C61" mask="url(#path-1-inside-1_611_16410)"/>
</g>
<g id="Union_2">
<mask id="path-3-inside-2_611_16410" fill="white">
<path fill-rule="evenodd" clip-rule="evenodd" d="M49.5 22C49.5 24.7614 47.2614 27 44.5 27L40.5 27C37.7386 27 35.5 24.7614 35.5 22C34.3954 22 33.5 21.1046 33.5 20C33.5 18.8954 34.3954 18 35.5 18L35.5 6C35.5 3.23858 37.7386 0.999999 40.5 0.999999L44.5 0.999999C47.2614 1 49.5 3.23858 49.5 6L49.5 18C50.6046 18 51.5 18.8954 51.5 20C51.5 21.1046 50.6046 22 49.5 22Z"/>
</mask>
<path d="M44.5 27L44.5 26L44.5 27ZM49.5 22L49.5 21L48.5 21L48.5 22L49.5 22ZM40.5 27L40.5 28L40.5 27ZM35.5 22L36.5 22L36.5 21L35.5 21L35.5 22ZM35.5 18L35.5 19L36.5 19L36.5 18L35.5 18ZM35.5 6L34.5 6L35.5 6ZM40.5 0.999999L40.5 2L40.5 0.999999ZM44.5 0.999999L44.5 -6.11959e-07L44.5 0.999999ZM49.5 6L48.5 6L49.5 6ZM49.5 18L48.5 18L48.5 19L49.5 19L49.5 18ZM44.5 28C47.8137 28 50.5 25.3137 50.5 22L48.5 22C48.5 24.2091 46.7091 26 44.5 26L44.5 28ZM40.5 28L44.5 28L44.5 26L40.5 26L40.5 28ZM34.5 22C34.5 25.3137 37.1863 28 40.5 28L40.5 26C38.2909 26 36.5 24.2091 36.5 22L34.5 22ZM35.5 21C34.9477 21 34.5 20.5523 34.5 20L32.5 20C32.5 21.6569 33.8431 23 35.5 23L35.5 21ZM34.5 20C34.5 19.4477 34.9477 19 35.5 19L35.5 17C33.8431 17 32.5 18.3431 32.5 20L34.5 20ZM34.5 6L34.5 18L36.5 18L36.5 6L34.5 6ZM40.5 -9.61651e-07C37.1863 -1.25134e-06 34.5 2.68629 34.5 6L36.5 6C36.5 3.79086 38.2909 2 40.5 2L40.5 -9.61651e-07ZM44.5 -6.11959e-07L40.5 -9.61651e-07L40.5 2L44.5 2L44.5 -6.11959e-07ZM50.5 6C50.5 2.68629 47.8137 -3.22266e-07 44.5 -6.11959e-07L44.5 2C46.7091 2 48.5 3.79086 48.5 6L50.5 6ZM50.5 18L50.5 6L48.5 6L48.5 18L50.5 18ZM52.5 20C52.5 18.3431 51.1569 17 49.5 17L49.5 19C50.0523 19 50.5 19.4477 50.5 20L52.5 20ZM49.5 23C51.1569 23 52.5 21.6569 52.5 20L50.5 20C50.5 20.5523 50.0523 21 49.5 21L49.5 23Z" fill="#595C61" mask="url(#path-3-inside-2_611_16410)"/>
</g>
<rect id="Rectangle 6263" x="18.1" y="35.6" width="7.2" height="13.2" rx="2.6" transform="rotate(-180 18.1 35.6)" stroke="#595C61" stroke-width="0.8"/>
<rect id="Rectangle 6480" x="46.1" y="17.6" width="7.2" height="13.2" rx="2.6" transform="rotate(-180 46.1 17.6)" stroke="#595C61" stroke-width="0.8"/>
<rect id="Rectangle 6264" x="18.1" y="35.6" width="7.2" height="5.2" rx="2.6" transform="rotate(-180 18.1 35.6)" stroke="#595C61" stroke-width="0.8"/>
<rect id="Rectangle 6481" x="46.1" y="17.6" width="7.2" height="5.2" rx="2.6" transform="rotate(-180 46.1 17.6)" stroke="#595C61" stroke-width="0.8"/>
<rect id="Rectangle 6265" x="18.1" y="26.6" width="7.2" height="4.2" rx="2.1" transform="rotate(-180 18.1 26.6)" stroke="#595C61" stroke-width="0.8"/>
<rect id="Rectangle 6482" x="46.1" y="8.6" width="7.2" height="4.2" rx="2.1" transform="rotate(-180 46.1 8.6)" stroke="#595C61" stroke-width="0.8"/>
<path id="Ellipse 564" d="M11.5 58C11.5 57.2044 11.8687 56.4413 12.5251 55.8787C13.1815 55.3161 14.0717 55 15 55C15.9283 55 16.8185 55.3161 17.4749 55.8787C18.1313 56.4413 18.5 57.2044 18.5 58" stroke="#595C61" stroke-width="0.8"/>
<path id="Ellipse 565" d="M7.5 58C7.5 56.4087 8.29018 54.8826 9.6967 53.7574C11.1032 52.6321 13.0109 52 15 52C16.9891 52 18.8968 52.6321 20.3033 53.7574C21.7098 54.8826 22.5 56.4087 22.5 58" stroke="#595C61" stroke-width="0.8"/>
<path id="Vector 524" d="M1 1V32.5" stroke="#595C61" stroke-linecap="round" stroke-linejoin="round"/>
<path id="Vector 525" d="M28.5 1V32.5" stroke="#595C61" stroke-linecap="round" stroke-linejoin="round"/>
<path id="Vector 527" d="M14.8 1C14.8 0.834315 14.6657 0.7 14.5 0.7C14.3343 0.7 14.2 0.834315 14.2 1H14.8ZM14.2879 11.2121C14.405 11.3293 14.595 11.3293 14.7121 11.2121L16.6213 9.30294C16.7385 9.18579 16.7385 8.99584 16.6213 8.87868C16.5042 8.76152 16.3142 8.76152 16.1971 8.87868L14.5 10.5757L12.8029 8.87868C12.6858 8.76152 12.4958 8.76152 12.3787 8.87868C12.2615 8.99584 12.2615 9.18579 12.3787 9.30294L14.2879 11.2121ZM14.2 1V11H14.8V1H14.2Z" fill="#595C61"/>
<path id="Vector 526" d="M55.5 1V32.5" stroke="#595C61" stroke-linecap="round" stroke-linejoin="round"/>
</g>
</svg>
