<svg width="54" height="41" viewBox="0 0 54 41" fill="none" xmlns="http://www.w3.org/2000/svg">
<path d="M50.5215 32.3709L45.8867 31.6578C45.4415 31.5893 45.0972 31.2339 45.0463 30.7864C44.5261 26.2125 43.6328 17.8094 43.6328 15.541C43.6328 13.2847 45.4005 9.37861 46.4431 7.39559C46.5633 7.1669 46.5923 6.9028 46.5377 6.65024C46.1213 4.72081 46.1461 1.41517 49.1328 1.04184C52.3328 0.641838 52.7995 3.20851 52.6328 4.54184L51.6729 31.4182C51.6516 32.0163 51.1131 32.4619 50.5215 32.3709Z" stroke="#595C61"/>
<path d="M29.1189 33.5621L50.3821 34.4866C51.0229 34.5145 51.4722 35.13 51.3034 35.7488L50.33 39.3179C50.2131 39.7465 49.8276 40.0466 49.3834 40.0546L24.8598 40.5005C23.997 40.5162 23.5208 39.5051 24.0823 38.8499L28.3162 33.9104C28.5161 33.6772 28.812 33.5488 29.1189 33.5621Z" stroke="#595C61"/>
<path d="M19.1332 11.541L11.1332 23.541M29.1332 11.541L21.1332 23.541M2.00168 23.541H30.598C30.9323 23.541 31.2446 23.3739 31.43 23.0957L38.0967 13.0957C38.5397 12.4312 38.0633 11.541 37.2646 11.541H8.66835C8.334 11.541 8.02176 11.7081 7.8363 11.9863L1.16963 21.9863C0.726595 22.6509 1.20299 23.541 2.00168 23.541Z" stroke="#595C61"/>
<path d="M19.5368 18.085H20.1768V16.385L19.6368 16.673L19.4488 16.277L20.3048 15.821H20.6808V18.085H21.2808V18.541H19.5368V18.085Z" fill="#595C61"/>
<path d="M29.3608 18.153C29.4168 18.0463 29.4888 17.9477 29.5768 17.857C29.6675 17.7663 29.7621 17.6823 29.8608 17.605C29.9621 17.525 30.0635 17.449 30.1648 17.377C30.2688 17.3023 30.3608 17.229 30.4408 17.157C30.5235 17.0823 30.5901 17.0063 30.6408 16.929C30.6941 16.8517 30.7208 16.7677 30.7208 16.677C30.7208 16.6183 30.7115 16.5623 30.6928 16.509C30.6768 16.4557 30.6501 16.409 30.6128 16.369C30.5755 16.329 30.5261 16.297 30.4648 16.273C30.4061 16.249 30.3341 16.237 30.2488 16.237C30.1235 16.237 30.0208 16.269 29.9408 16.333C29.8608 16.397 29.8021 16.4863 29.7648 16.601L29.3728 16.385C29.3968 16.3157 29.4315 16.245 29.4768 16.173C29.5248 16.0983 29.5848 16.0317 29.6568 15.973C29.7288 15.9117 29.8155 15.8623 29.9168 15.825C30.0181 15.785 30.1368 15.765 30.2728 15.765C30.4248 15.765 30.5595 15.7877 30.6768 15.833C30.7968 15.8783 30.8968 15.941 30.9768 16.021C31.0595 16.101 31.1221 16.1943 31.1648 16.301C31.2075 16.4077 31.2288 16.5223 31.2288 16.645C31.2288 16.7783 31.2048 16.8983 31.1568 17.005C31.1088 17.1117 31.0475 17.209 30.9728 17.297C30.9008 17.3823 30.8181 17.461 30.7248 17.533C30.6341 17.6023 30.5435 17.669 30.4528 17.733C30.3648 17.7943 30.2835 17.8543 30.2088 17.913C30.1341 17.969 30.0755 18.0263 30.0328 18.085H31.2808V18.541H29.3608V18.153Z" fill="#595C61"/>
<path d="M7.34881 18.597C7.19148 18.597 7.05148 18.5783 6.92881 18.541C6.80615 18.5037 6.69681 18.4557 6.60081 18.397C6.50748 18.3383 6.42615 18.273 6.35681 18.201C6.29015 18.1263 6.23281 18.053 6.18481 17.981L6.52481 17.649C6.56481 17.7103 6.61015 17.7703 6.66081 17.829C6.71415 17.885 6.77548 17.9357 6.84481 17.981C6.91415 18.0263 6.99015 18.0623 7.07281 18.089C7.15815 18.1157 7.25281 18.129 7.35681 18.129C7.52481 18.129 7.65148 18.093 7.73681 18.021C7.82481 17.9463 7.86881 17.8557 7.86881 17.749C7.86881 17.6637 7.83548 17.5903 7.76881 17.529C7.70215 17.465 7.58881 17.421 7.42881 17.397L7.19281 17.361C7.07281 17.3423 6.96348 17.3117 6.86481 17.269C6.76615 17.2263 6.68081 17.173 6.60881 17.109C6.53948 17.0423 6.48481 16.9663 6.44481 16.881C6.40748 16.793 6.38881 16.697 6.38881 16.593C6.38881 16.4783 6.41148 16.3703 6.45681 16.269C6.50215 16.1677 6.56748 16.0797 6.65281 16.005C6.73815 15.9303 6.84081 15.8717 6.96081 15.829C7.08348 15.7863 7.22081 15.765 7.37281 15.765C7.58348 15.765 7.77148 15.8063 7.93681 15.889C8.10215 15.9717 8.23415 16.077 8.33281 16.205L8.00081 16.549C7.91548 16.445 7.81815 16.3663 7.70881 16.313C7.59948 16.2597 7.48348 16.233 7.36081 16.233C7.22481 16.233 7.11815 16.2637 7.04081 16.325C6.96615 16.3863 6.92881 16.4583 6.92881 16.541C6.92881 16.621 6.95815 16.689 7.01681 16.745C7.07548 16.7983 7.16481 16.8343 7.28481 16.853L7.51681 16.889C7.79948 16.9317 8.01815 17.0223 8.17281 17.161C8.32748 17.297 8.40481 17.481 8.40481 17.713C8.40481 17.8437 8.37948 17.9637 8.32881 18.073C8.27815 18.1797 8.20615 18.273 8.11281 18.353C8.01948 18.4303 7.90748 18.4903 7.77681 18.533C7.64881 18.5757 7.50615 18.597 7.34881 18.597ZM8.71116 15.821H10.6232V16.277H9.23116V16.941H10.4312V17.393H9.23116V18.085H10.6232V18.541H8.71116V15.821ZM11.5582 16.277H10.7302V15.821H12.9062V16.277H12.0782V18.541H11.5582V16.277Z" fill="#595C61"/>
</svg>
