<svg xmlns="http://www.w3.org/2000/svg" width="60" height="26" viewBox="0 0 60 26" fill="none">
  <path d="M4 16.5H15" stroke="#595C61"/>
  <path d="M45 16.5H56" stroke="#595C61"/>
  <path d="M15 3.5V20.5" stroke="#595C61"/>
  <path d="M45 3.5V20.5" stroke="#595C61"/>
  <path d="M1 5.5C1 2.73858 3.23858 0.5 6 0.5H54C56.7614 0.5 59 2.73858 59 5.5V22.5C59 24.1569 57.6569 25.5 56 25.5H4C2.34315 25.5 1 24.1569 1 22.5V5.5Z" stroke="#595C61"/>
  <path d="M4 8.5C4 5.73858 6.23858 3.5 9 3.5H51C53.7614 3.5 56 5.73858 56 8.5V18.5C56 19.6046 55.1046 20.5 54 20.5H6C4.89543 20.5 4 19.6046 4 18.5V8.5Z" stroke="#595C61"/>
  <circle cx="9.5" cy="11" r="3.5" stroke="#595C61"/>
  <circle cx="50.5" cy="11" r="3.5" stroke="#595C61"/>
  <rect x="17" y="14.5" width="3" height="4" rx="0.6" stroke="#595C61"/>
  <rect x="22" y="14.5" width="3" height="4" rx="0.6" stroke="#595C61"/>
  <rect x="27" y="14.5" width="3" height="4" rx="0.6" stroke="#595C61"/>
  <rect x="32" y="14.5" width="11" height="4" rx="0.6" stroke="#595C61"/>
  <path d="M9 16.5V20.5" stroke="#595C61"/>
  <path d="M51 16.5V20.5" stroke="#595C61"/>
</svg>