<svg width="16" height="18" viewBox="0 0 16 18" fill="none" xmlns="http://www.w3.org/2000/svg">
<path d="M8.66536 14.866V15.9993H7.33203V14.866H1.9987C1.82189 14.866 1.65232 14.8063 1.52729 14.7C1.40227 14.5938 1.33203 14.4496 1.33203 14.2993V5.23268C1.33203 5.08239 1.40227 4.93826 1.52729 4.83199C1.65232 4.72572 1.82189 4.66602 1.9987 4.66602H5.9987C6.37709 4.66564 6.75122 4.73388 7.09611 4.86619C7.441 4.9985 7.74871 5.19184 7.9987 5.43328C8.24868 5.19184 8.55639 4.9985 8.90128 4.86619C9.24618 4.73388 9.62031 4.66564 9.9987 4.66602H13.9987C14.1755 4.66602 14.3451 4.72572 14.4701 4.83199C14.5951 4.93826 14.6654 5.08239 14.6654 5.23268V14.2993C14.6654 14.4496 14.5951 14.5938 14.4701 14.7C14.3451 14.8063 14.1755 14.866 13.9987 14.866H8.66536ZM13.332 13.7327V5.79935H9.9987C9.64508 5.79935 9.30594 5.91875 9.05589 6.1313C8.80584 6.34384 8.66536 6.63211 8.66536 6.93268V13.7327H13.332ZM7.33203 13.7327V6.93268C7.33203 6.63211 7.19156 6.34384 6.94151 6.1313C6.69146 5.91875 6.35232 5.79935 5.9987 5.79935H2.66536V13.7327H7.33203Z" fill="#FFA724"/>
<rect x="2.66797" y="1.33398" width="1.33333" height="2.66667" rx="0.666667" transform="rotate(-30 2.66797 1.33398)" fill="#FFA724"/>
<rect width="1.33333" height="2.66667" rx="0.666667" transform="matrix(-0.866025 -0.5 -0.5 0.866025 13.1523 1.33398)" fill="#FFA724"/>
<rect x="7.33203" width="1.33333" height="2.66667" rx="0.666667" fill="#FFA724"/>
</svg>
