<svg width="22" height="22" viewBox="0 0 22 22" fill="none" xmlns="http://www.w3.org/2000/svg">
<g id="Group">
<path id="Vector" d="M17.5833 17.6667H4.75V18.5833C4.75 18.8264 4.65342 19.0596 4.48151 19.2315C4.30961 19.4034 4.07645 19.5 3.83333 19.5H2.91667C2.67355 19.5 2.44039 19.4034 2.26849 19.2315C2.09658 19.0596 2 18.8264 2 18.5833V9.41667L4.27333 4.111C4.4148 3.781 4.65004 3.4998 4.94988 3.3023C5.24972 3.1048 5.60096 2.99968 5.96 3H16.3733C16.7321 3.00004 17.0829 3.10532 17.3824 3.3028C17.6819 3.50028 17.9168 3.78129 18.0582 4.111L20.3333 9.41667V18.5833C20.3333 18.8264 20.2368 19.0596 20.0648 19.2315C19.8929 19.4034 19.6598 19.5 19.4167 19.5H18.5C18.2569 19.5 18.0237 19.4034 17.8518 19.2315C17.6799 19.0596 17.5833 18.8264 17.5833 18.5833V17.6667ZM18.5 11.25H3.83333V15.8333H18.5V11.25ZM3.99467 9.41667H18.3387L16.3742 4.83333H5.96L3.99558 9.41667H3.99467ZM6.125 14.9167C5.76033 14.9167 5.41059 14.7718 5.15273 14.5139C4.89487 14.2561 4.75 13.9063 4.75 13.5417C4.75 13.177 4.89487 12.8273 5.15273 12.5694C5.41059 12.3115 5.76033 12.1667 6.125 12.1667C6.48967 12.1667 6.83941 12.3115 7.09727 12.5694C7.35513 12.8273 7.5 13.177 7.5 13.5417C7.5 13.9063 7.35513 14.2561 7.09727 14.5139C6.83941 14.7718 6.48967 14.9167 6.125 14.9167ZM16.2083 14.9167C15.8437 14.9167 15.4939 14.7718 15.2361 14.5139C14.9782 14.2561 14.8333 13.9063 14.8333 13.5417C14.8333 13.177 14.9782 12.8273 15.2361 12.5694C15.4939 12.3115 15.8437 12.1667 16.2083 12.1667C16.573 12.1667 16.9227 12.3115 17.1806 12.5694C17.4385 12.8273 17.5833 13.177 17.5833 13.5417C17.5833 13.9063 17.4385 14.2561 17.1806 14.5139C16.9227 14.7718 16.573 14.9167 16.2083 14.9167Z" fill="#202732"/>
</g>
</svg>
