<svg width="36" height="36" viewBox="0 0 36 36" fill="none" xmlns="http://www.w3.org/2000/svg">
<g id="Group">
<path id="Vector" d="M7.99683 4.9068C8.93291 4.57286 9.94454 4.51148 10.9141 4.7298C11.8837 4.94812 12.7714 5.43716 13.474 6.14008C14.1766 6.843 14.6653 7.73091 14.8831 8.70059C15.101 9.67027 15.0392 10.6819 14.7048 11.6178L30.9723 27.8853L27.7893 31.0668L11.5218 14.8008C10.5858 15.1347 9.57413 15.1961 8.60455 14.9778C7.63497 14.7595 6.74728 14.2704 6.04467 13.5675C5.34207 12.8646 4.85342 11.9767 4.63553 11.007C4.41765 10.0373 4.47948 9.02572 4.81383 8.0898L8.16783 11.4453C8.37539 11.6602 8.62367 11.8316 8.89817 11.9495C9.17268 12.0674 9.46793 12.1295 9.76668 12.1321C10.0654 12.1347 10.3617 12.0778 10.6382 11.9646C10.9147 11.8515 11.166 11.6844 11.3772 11.4732C11.5885 11.2619 11.7556 11.0107 11.8687 10.7342C11.9818 10.4577 12.0387 10.1614 12.0361 9.86264C12.0336 9.56389 11.9715 9.26864 11.8536 8.99414C11.7356 8.71963 11.5642 8.47135 11.3493 8.2638L7.99533 4.9053L7.99683 4.9068ZM23.5473 7.7328L28.3203 5.0808L30.4413 7.2018L27.7893 11.9748L25.1373 12.5058L21.9573 15.6873L19.8348 13.5663L23.0163 10.3848L23.5473 7.7328ZM12.9408 19.3998L16.1223 22.5828L8.69733 30.0078C8.28789 30.4134 7.73841 30.6464 7.16221 30.6588C6.586 30.6712 6.02701 30.462 5.60051 30.0744C5.17402 29.6867 4.91253 29.1502 4.86998 28.5755C4.82743 28.0007 5.00707 27.4315 5.37183 26.9853L5.51733 26.8248L12.9423 19.3998H12.9408Z" fill="#09121F"/>
</g>
</svg>
