<svg width="20" height="20" viewBox="0 0 20 20" fill="none" xmlns="http://www.w3.org/2000/svg">
<g id="Group">
<path id="Vector" d="M4.02464 17.5L4.00797 17.5167L3.99047 17.5H2.49464C2.27531 17.4998 2.06505 17.4125 1.91004 17.2573C1.75504 17.1022 1.66797 16.8918 1.66797 16.6725V3.3275C1.66949 3.10865 1.75705 2.89918 1.91173 2.74435C2.06641 2.58951 2.27579 2.50175 2.49464 2.5H17.508C17.9646 2.5 18.3346 2.87083 18.3346 3.3275V16.6725C18.3331 16.8914 18.2456 17.1008 18.0909 17.2557C17.9362 17.4105 17.7268 17.4983 17.508 17.5H4.02464ZM16.668 12.5V4.16667H3.33464V15.8333L11.668 7.5L16.668 12.5ZM16.668 14.8567L11.668 9.85667L5.6913 15.8333H16.668V14.8567ZM6.66797 9.16667C6.22594 9.16667 5.80202 8.99107 5.48946 8.67851C5.1769 8.36595 5.0013 7.94203 5.0013 7.5C5.0013 7.05797 5.1769 6.63405 5.48946 6.32149C5.80202 6.00893 6.22594 5.83333 6.66797 5.83333C7.11 5.83333 7.53392 6.00893 7.84648 6.32149C8.15904 6.63405 8.33464 7.05797 8.33464 7.5C8.33464 7.94203 8.15904 8.36595 7.84648 8.67851C7.53392 8.99107 7.11 9.16667 6.66797 9.16667Z" fill="#09121F"/>
</g>
</svg>
