<svg width="24" height="24" viewBox="0 0 24 24" fill="none" xmlns="http://www.w3.org/2000/svg">
<g id="face" clip-path="url(#clip0_668_22051)">
<g id="Group">
<path id="Vector" d="M4.92901 19.071C3.99904 18.1434 3.26154 17.0413 2.75889 15.8278C2.25623 14.6143 1.99833 13.3135 2.00001 12C2.00001 6.477 6.47701 2 12 2C17.523 2 22 6.477 22 12C22 17.523 17.523 22 12 22H2.00001L4.92901 19.071Z" fill="#FFA724"/>
<circle id="Ellipse 660" cx="10" cy="10" r="1" fill="#0E2B5C"/>
<circle id="Ellipse 661" cx="14" cy="10" r="1" fill="#0E2B5C"/>
</g>
<path id="Vector_2" d="M8.46447 15.5355C7.52678 14.5979 7 13.3261 7 12H9C9 12.7956 9.31607 13.5587 9.87868 14.1213C10.4413 14.6839 11.2044 15 12 15C12.7956 15 13.5587 14.6839 14.1213 14.1213C14.6839 13.5587 15 12.7956 15 12H17C17 13.3261 16.4732 14.5979 15.5355 15.5355C14.5979 16.4732 13.3261 17 12 17C10.6739 17 9.40215 16.4732 8.46447 15.5355Z" fill="#0E2B5C"/>
</g>
<defs>
<clipPath id="clip0_668_22051">
<rect width="24" height="24" fill="white"/>
</clipPath>
</defs>
</svg>
