<svg width="36" height="36" viewBox="0 0 36 36" fill="none" xmlns="http://www.w3.org/2000/svg">
<g id="Group">
<path id="Vector" d="M8.1945 6.64951C10.9163 4.29101 14.3985 2.99499 18 3.00001C26.2845 3.00001 33 9.71551 33 18C33 21.204 31.995 24.174 30.285 26.61L25.5 18H30C30.0002 15.6475 29.3089 13.3467 28.012 11.3839C26.7151 9.42108 24.8699 7.88275 22.7058 6.9602C20.5416 6.03765 18.1541 5.77157 15.8399 6.19504C13.5258 6.61852 11.3872 7.71286 9.69 9.34201L8.1945 6.64951ZM27.8055 29.3505C25.0837 31.709 21.6015 33.005 18 33C9.7155 33 3 26.2845 3 18C3 14.796 4.005 11.826 5.715 9.39001L10.5 18H6C5.99981 20.3526 6.69113 22.6533 7.988 24.6161C9.28488 26.579 11.1301 28.1173 13.2942 29.0398C15.4584 29.9624 17.8459 30.2285 20.1601 29.805C22.4742 29.3815 24.6128 28.2872 26.31 26.658L27.8055 29.3505Z" fill="#0E2B5C"/>
</g>
</svg>
