<svg width="22" height="22" viewBox="0 0 22 22" fill="none" xmlns="http://www.w3.org/2000/svg">
<path d="M17.4154 18.3327H4.58203V19.2493C4.58203 19.4925 4.48545 19.7256 4.31355 19.8975C4.14164 20.0694 3.90848 20.166 3.66536 20.166H2.7487C2.50558 20.166 2.27242 20.0694 2.10052 19.8975C1.92861 19.7256 1.83203 19.4925 1.83203 19.2493V10.0827L4.10536 4.77702C4.24683 4.44702 4.48207 4.16582 4.78191 3.96831C5.08175 3.77081 5.43299 3.6657 5.79203 3.66602H16.2054C16.5641 3.66606 16.9149 3.77134 17.2144 3.96882C17.5139 4.1663 17.7489 4.4473 17.8902 4.77702L20.1654 10.0827V19.2493C20.1654 19.4925 20.0688 19.7256 19.8969 19.8975C19.725 20.0694 19.4918 20.166 19.2487 20.166H18.332C18.0889 20.166 17.8558 20.0694 17.6838 19.8975C17.5119 19.7256 17.4154 19.4925 17.4154 19.2493V18.3327ZM18.332 11.916H3.66536V16.4994H18.332V11.916ZM3.8267 10.0827H18.1707L16.2063 5.49935H5.79203L3.82761 10.0827H3.8267ZM5.95703 15.5827C5.59236 15.5827 5.24262 15.4378 4.98476 15.18C4.7269 14.9221 4.58203 14.5724 4.58203 14.2077C4.58203 13.843 4.7269 13.4933 4.98476 13.2354C5.24262 12.9775 5.59236 12.8327 5.95703 12.8327C6.3217 12.8327 6.67144 12.9775 6.9293 13.2354C7.18717 13.4933 7.33203 13.843 7.33203 14.2077C7.33203 14.5724 7.18717 14.9221 6.9293 15.18C6.67144 15.4378 6.3217 15.5827 5.95703 15.5827ZM16.0404 15.5827C15.6757 15.5827 15.326 15.4378 15.0681 15.18C14.8102 14.9221 14.6654 14.5724 14.6654 14.2077C14.6654 13.843 14.8102 13.4933 15.0681 13.2354C15.326 12.9775 15.6757 12.8327 16.0404 12.8327C16.405 12.8327 16.7548 12.9775 17.0126 13.2354C17.2705 13.4933 17.4154 13.843 17.4154 14.2077C17.4154 14.5724 17.2705 14.9221 17.0126 15.18C16.7548 15.4378 16.405 15.5827 16.0404 15.5827Z" fill="#202732"/>
</svg>
